<?xml version="1.0" standalone="no"?>
<!DOCTYPE svg PUBLIC "-//W3C//DTD SVG 20010904//EN"
 "http://www.w3.org/TR/2001/REC-SVG-20010904/DTD/svg10.dtd">
<svg version="1.0" xmlns="http://www.w3.org/2000/svg"
 width="300.000000pt" height="297.000000pt" viewBox="0 0 300.000000 297.000000"
 preserveAspectRatio="xMidYMid meet">
<metadata>
Created by potrace 1.10, written by Peter Selinger 2001-2011
</metadata>
<g transform="translate(0.000000,297.000000) scale(0.100000,-0.100000)"
fill="#000000" stroke="none">
<path d="M1890 2462 c-55 -26 -128 -106 -160 -175 -37 -78 -55 -192 -42 -267
9 -54 10 -53 11 41 2 165 53 282 157 361 61 47 107 58 135 32 18 -16 20 -25
13 -64 -8 -49 -9 -183 -3 -301 5 -101 -3 -110 -145 -153 -149 -45 -149 -45
-140 18 12 88 33 158 75 241 50 100 132 205 160 205 20 0 21 -4 18 -127 -5
-161 -13 -176 -133 -258 -48 -33 -92 -69 -98 -79 -8 -13 1 -10 28 12 22 17 68
50 104 74 93 62 109 98 111 250 1 64 -2 121 -5 127 -4 6 -18 11 -31 11 -65 0
-235 -303 -235 -420 0 -16 -4 -31 -9 -34 -9 -6 -37 68 -43 114 -3 24 -4 24
-15 4 -9 -16 -8 -29 8 -64 l20 -44 -23 21 c-44 39 -95 57 -84 28 8 -22 -8 -18
-30 6 -10 12 -49 36 -86 55 -85 43 -101 67 -109 166 -10 112 -43 144 -102 98
-46 -37 -146 -243 -133 -277 3 -7 1 -13 -4 -13 -17 0 -11 -72 9 -126 21 -54
20 -57 -24 -120 -29 -41 -25 -137 9 -234 14 -41 31 -114 36 -163 6 -49 19
-105 29 -126 29 -56 54 -65 160 -57 80 7 91 6 91 -8 0 -9 17 -35 39 -59 44
-48 58 -73 75 -130 12 -44 32 -59 42 -32 9 22 -68 175 -106 214 -18 18 -26 32
-20 36 6 4 47 15 92 26 154 37 277 118 329 219 32 61 32 174 1 243 -12 27 -26
46 -31 43 -13 -9 -8 -29 15 -59 58 -72 26 -226 -63 -308 -61 -57 -188 -116
-288 -133 -22 -4 -49 -13 -60 -20 -30 -19 -186 -30 -219 -14 -39 17 -63 72
-72 159 -3 40 -20 116 -35 168 -34 109 -37 182 -10 231 17 32 22 35 60 32 29
-3 52 3 76 17 52 30 43 6 -21 -55 -54 -53 -55 -54 -52 -105 2 -36 8 -54 18
-57 13 -5 13 -3 1 14 -14 18 -14 18 4 2 18 -17 18 -19 2 -50 -10 -18 -25 -45
-34 -60 -15 -23 -15 -28 -3 -43 8 -10 13 -31 11 -47 -6 -58 32 -71 127 -43 28
9 64 26 79 40 l28 23 -30 32 c-48 50 -90 72 -132 68 -30 -2 -37 0 -34 12 13
49 11 66 -8 84 -34 31 -26 63 27 114 59 56 79 107 62 156 -14 45 -52 78 -108
96 -46 15 -47 16 -46 55 1 45 60 176 100 224 27 32 61 40 82 19 7 -7 12 -39
12 -73 0 -43 7 -74 23 -105 19 -39 34 -51 105 -88 47 -25 82 -49 82 -58 0 -8
-20 -34 -45 -58 -37 -36 -45 -51 -45 -80 0 -25 6 -38 19 -46 28 -14 89 -12
149 5 29 9 54 14 56 13 2 -2 12 5 23 14 19 17 19 16 19 -35 -1 -28 5 -78 13
-110 11 -42 11 -61 3 -69 -18 -18 -60 17 -74 63 -10 35 -9 49 5 87 19 54 15
67 -7 23 -35 -67 -7 -173 50 -187 31 -8 57 17 47 44 -6 15 -3 14 14 -1 31 -27
67 -19 71 16 2 16 -2 34 -8 42 -7 8 -8 20 -4 26 5 8 3 9 -6 4 -8 -5 -11 -4 -7
2 4 6 0 16 -8 23 -8 7 -15 17 -15 22 0 7 5 6 13 -1 10 -8 14 -7 14 3 0 8 -8
13 -19 11 -12 -3 -16 0 -12 7 4 7 3 8 -4 4 -6 -3 -16 3 -22 14 -11 20 -10 21
9 11 11 -6 23 -16 26 -21 4 -6 11 -8 16 -4 5 3 6 10 3 16 -4 6 1 6 14 -1 30
-16 117 -14 159 4 50 21 37 28 -17 9 -52 -18 -119 -14 -170 9 -34 16 -30 17
112 14 l147 -2 30 -29 c36 -35 39 -63 11 -99 -44 -55 -133 -40 -219 38 -23 21
-44 35 -47 33 -9 -9 79 -79 125 -100 86 -39 171 -1 171 77 0 25 -8 40 -31 59
-17 14 -35 26 -40 26 -6 0 -3 10 5 22 31 43 14 88 -31 88 -21 0 -22 2 -12 22
8 15 9 44 3 97 -10 92 -10 207 1 279 6 44 5 56 -10 72 -22 25 -68 26 -115 2z
m-725 -443 c70 -21 105 -58 105 -113 0 -28 -23 -38 -88 -40 -33 -1 -34 1 -58
63 -29 78 -32 116 -6 106 9 -4 31 -11 47 -16z m492 -64 c46 -48 48 -52 34 -73
-16 -25 -169 -44 -215 -26 -24 9 -20 23 24 70 22 24 40 48 40 53 0 10 22 18
54 20 11 0 38 -19 63 -44z m391 13 c7 -7 12 -20 12 -29 0 -34 -28 -42 -148
-44 l-117 -3 65 23 c36 12 85 32 110 44 52 24 62 25 78 9z m-228 -281 c0 -10
-7 -20 -15 -23 -38 -15 -84 71 -85 156 l0 55 50 -85 c28 -47 50 -93 50 -103z
m-265 150 c38 1 44 -1 25 -7 -41 -13 -95 -11 -116 5 -18 14 -17 15 11 8 17 -5
53 -7 80 -6z m-353 -307 c3 -16 1 -30 -3 -30 -4 0 -14 -3 -23 -6 -12 -5 -16 0
-16 18 0 23 16 48 31 48 4 0 9 -13 11 -30z m116 -6 c29 -20 51 -38 49 -40 -5
-5 -145 31 -153 39 -13 12 6 37 28 37 13 0 47 -16 76 -36z m32 -56 l25 -10
-35 -18 c-53 -29 -138 -44 -155 -30 -18 15 -19 52 -2 69 13 13 121 6 167 -11z
m113 -280 c44 -60 51 -85 11 -39 -47 53 -58 71 -45 71 5 0 21 -15 34 -32z m90
-192 c-4 -5 -12 11 -19 35 -18 58 -16 62 6 14 10 -21 16 -44 13 -49z"/>
<path d="M1610 1950 c25 -23 54 -46 65 -51 11 -6 0 8 -25 31 -25 22 -54 45
-65 51 -11 5 0 -9 25 -31z"/>
<path d="M2040 1216 c0 -10 9 -33 19 -50 11 -17 22 -60 26 -96 l6 -65 -20 43
c-11 23 -27 42 -36 42 -22 0 -19 -13 16 -56 35 -44 35 -70 1 -146 l-19 -43 0
43 c0 28 -6 49 -18 60 -18 18 -18 13 1 -79 9 -40 -11 -69 -46 -69 -17 0 -30
-4 -30 -10 0 -5 6 -7 14 -4 27 10 27 -16 0 -101 -15 -47 -25 -88 -22 -90 2 -3
17 36 33 86 18 55 37 96 49 105 11 8 15 14 9 14 -20 0 31 73 85 122 29 27 48
68 31 68 -5 0 -20 -18 -34 -40 -14 -22 -28 -40 -31 -40 -3 0 -3 4 1 9 3 6 10
36 16 68 5 32 17 79 26 104 17 48 11 98 -7 69 -5 -8 -7 -23 -4 -32 3 -10 1
-25 -4 -34 -7 -13 -11 -3 -16 39 -4 32 -16 66 -26 79 -18 21 -19 21 -20 4z"/>
<path d="M748 783 c-77 -49 -76 -198 1 -237 32 -17 92 -20 126 -7 16 6 19 16
17 45 -3 24 2 44 12 55 15 17 13 18 -30 18 -39 0 -44 -2 -30 -12 11 -8 16 -27
16 -59 0 -46 0 -46 -34 -46 -19 0 -42 3 -51 6 -60 23 -60 215 0 238 44 17 85
-1 85 -36 0 -23 26 -24 34 -1 10 26 -18 45 -71 50 -34 3 -56 -1 -75 -14z"/>
<path d="M958 786 c20 -16 22 -25 22 -119 0 -104 -4 -120 -30 -130 -8 -3 31
-6 88 -6 l102 -1 -1 38 c-1 21 -3 29 -6 17 -9 -36 -24 -45 -74 -45 l-49 0 0
125 c0 93 -3 125 -12 125 -7 0 -24 3 -38 6 l-25 6 23 -16z"/>
<path d="M1062 788 c37 -8 49 -16 57 -36 10 -26 10 -26 8 8 l-2 35 -55 2 -55
1 47 -10z"/>
<path d="M1188 785 c12 -9 60 -71 105 -138 71 -106 82 -118 85 -95 2 20 -15
55 -68 132 -39 58 -76 106 -83 106 -6 0 -23 3 -37 6 l-25 6 23 -17z"/>
<path d="M1335 790 c3 -5 12 -10 20 -10 11 0 15 -21 18 -87 l3 -88 2 86 c2 78
4 87 25 97 19 9 16 11 -26 11 -30 1 -46 -3 -42 -9z"/>
<path d="M1435 769 c-8 -37 1 -52 10 -16 4 16 17 28 38 35 l32 10 -37 1 c-33
1 -37 -2 -43 -30z"/>
<path d="M1597 788 c21 -7 34 -19 38 -35 9 -36 18 -21 10 16 -6 28 -10 31 -43
30 l-37 -1 32 -10z"/>
<path d="M1685 784 c12 -9 15 -35 15 -123 0 -106 -1 -112 -22 -121 -18 -7 -9
-9 37 -9 45 0 56 2 43 10 -16 9 -18 26 -18 121 0 88 3 113 15 122 12 9 4 11
-35 11 -39 0 -47 -2 -35 -11z"/>
<path d="M1804 780 c7 -8 30 -64 51 -125 42 -121 51 -137 61 -111 4 11 -8 62
-30 125 -30 87 -34 108 -23 116 10 7 2 10 -29 10 -37 0 -41 -2 -30 -15z"/>
<path d="M2113 790 c-43 -17 -64 -68 -60 -139 3 -57 7 -67 35 -92 67 -60 158
-29 182 60 15 58 3 110 -36 149 -34 34 -74 41 -121 22z m96 -21 c35 -38 38
-153 5 -206 -19 -30 -73 -31 -100 -2 -16 17 -19 37 -19 106 0 77 2 87 24 104
30 25 65 24 90 -2z"/>
<path d="M1520 670 c0 -103 -2 -120 -17 -129 -14 -8 -5 -10 37 -10 42 0 51 2
38 10 -16 9 -18 26 -18 129 0 113 -1 120 -20 120 -19 0 -20 -7 -20 -120z"/>
<path d="M1202 648 c-2 -92 -4 -107 -19 -111 -10 -3 2 -5 27 -5 32 0 39 2 25
7 -18 7 -21 20 -26 112 l-5 104 -2 -107z"/>
<path d="M1045 670 c-4 -6 7 -10 24 -10 17 0 31 5 31 10 0 6 -11 10 -24 10
-14 0 -28 -4 -31 -10z"/>
</g>
</svg>
